# xmcd
#
# Track frame offsets: 
#        150
#        23373
#        40888
#        64373
#        84123
#        102425
#        122148
#        153875
#        161048
#        172750
#        196163
#        232415
#        253055
#        269285
#        286473
#        302318
#
# Disc length: 4205 seconds
#
# Revision: 2
# Processed by: cddbd v1.5.2PL0 Copyright (c) Steve Scherf et al.
# Submitted via: ExactAudioCopy v1.0b3
#
DISCID=cd106b10
DTITLE=Grappelli, Stephane - The Collection [Disc 2]
DYEAR=2000
DGENRE=Jazz
TTITLE0=How About You
TTITLE1=Someone To Watch Over Me
TTITLE2=This Can't Be Love
TTITLE3=The Nearness Of You
TTITLE4=Nuages (It's The Bluest Kind Of Blue)
TTITLE5=Oh! Lady Be Good
TTITLE6=As Time Goes By
TTITLE7=Mean To Me
TTITLE8=Manor Des Mes Reves
TTITLE9=Daphne
TTITLE10=Sweet Georgia Brown
TTITLE11=I Can't Give You Anything But Love
TTITLE12=Didn't We
TTITLE13=It Might As Well Be Spring
TTITLE14=Emotion
TTITLE15=Three Little Words
EXTD=A 2 Disk Set you have Disk one not 2 here is disk 2's information
EXTD=
EXTT0=
EXTT1=
EXTT2=
EXTT3=
EXTT4=
EXTT5=
EXTT6=
EXTT7=
EXTT8=
EXTT9=
EXTT10=
EXTT11=
EXTT12=
EXTT13=
EXTT14=
EXTT15=
PLAYORDER=
